PathFileType	3	(X/Y/Z)	results
DataRate	CameraRate	NumFrames	NumMarkers	Units	OrigDataRate	OrigDataStartFrame	OrigNumFrames
30.0	30.0	4	85	mm	30.0	90	239
Frame#	Time	head			nose			neck			shoulder_r			elbow_r			wrist_r			shoulder_l			elbow_l			wrist_l			hip_r			knee_r			ankle_r			hip_l			knee_l			ankle_l			heel_r			heel_l			mtoe_r			ltoe_r			mtoe_l			ltoe_l			asis_l			asis_r			psi_r			psi_l			mhnd_r			lhnd_r			mhnd_l			lhnd_l			l_lat_knee			r_med_wrist			l_lat_ankle			r_med_ankle			r_lat_knee			xiphoid			l_med_ankle			r_med_knee			l_med_elbow			navel			r_lat_elbow			r_lat_wrist			l_med_wrist			l_lat_elbow			l_med_knee			r_med_elbow			r_lat_ankle			l_lat_wrist			chin			T10			r_eye			l_eye			l_ear			r_ear			spinal_cord_8			spinal_cord_12			spinal_cord_27			spinal_cord_33			up_arm_r_0			up_arm_r_5			up_arm_l_0			up_arm_l_5			front_torso_11			front_torso_7			front_torso_4			front_torso_1			front_torso_10			thigh_r_2			thigh_r_3			thigh_l_1			thigh_l_5			shank_l_0			shank_l_4			shank_r_1			shank_r_2			foot_r_1			foot_r_3			foot_r_5			foot_r_6			foot_r_7			foot_l_1			foot_l_7			foot_l_0			foot_l_4			foot_l_5			foot_l_6			
		X1	Y1	Z1	X2	Y2	Z2	X3	Y3	Z3	X4	Y4	Z4	X5	Y5	Z5	X6	Y6	Z6	X7	Y7	Z7	X8	Y8	Z8	X9	Y9	Z9	X10	Y10	Z10	X11	Y11	Z11	X12	Y12	Z12	X13	Y13	Z13	X14	Y14	Z14	X15	Y15	Z15	X16	Y16	Z16	X17	Y17	Z17	X18	Y18	Z18	X19	Y19	Z19	X20	Y20	Z20	X21	Y21	Z21	X22	Y22	Z22	X23	Y23	Z23	X24	Y24	Z24	X25	Y25	Z25	X26	Y26	Z26	X27	Y27	Z27	X28	Y28	Z28	X29	Y29	Z29	X30	Y30	Z30	X31	Y31	Z31	X32	Y32	Z32	X33	Y33	Z33	X34	Y34	Z34	X35	Y35	Z35	X36	Y36	Z36	X37	Y37	Z37	X38	Y38	Z38	X39	Y39	Z39	X40	Y40	Z40	X41	Y41	Z41	X42	Y42	Z42	X43	Y43	Z43	X44	Y44	Z44	X45	Y45	Z45	X46	Y46	Z46	X47	Y47	Z47	X48	Y48	Z48	X49	Y49	Z49	X50	Y50	Z50	X51	Y51	Z51	X52	Y52	Z52	X53	Y53	Z53	X54	Y54	Z54	X55	Y55	Z55	X56	Y56	Z56	X57	Y57	Z57	X58	Y58	Z58	X59	Y59	Z59	X60	Y60	Z60	X61	Y61	Z61	X62	Y62	Z62	X63	Y63	Z63	X64	Y64	Z64	X65	Y65	Z65	X66	Y66	Z66	X67	Y67	Z67	X68	Y68	Z68	X69	Y69	Z69	X70	Y70	Z70	X71	Y71	Z71	X72	Y72	Z72	X73	Y73	Z73	X74	Y74	Z74	X75	Y75	Z75	X76	Y76	Z76	X77	Y77	Z77	X78	Y78	Z78	X79	Y79	Z79	X80	Y80	Z80	X81	Y81	Z81	X82	Y82	Z82	X83	Y83	Z83	X84	Y84	Z84	X85	Y85	Z85	
90	3.0	111.21177304208089	1681.849398612178	-452.0113228325549	100.49313176331697	1515.1187185050253	-573.6259739111698	84.3344058718872	1365.6669196421867	-415.23912925911344	288.0432151917658	1341.3626349562871	-406.5217787339562	363.1218801174495	1119.104665807447	-523.6788989549564	186.9795212389308	1180.069189784857	-647.7609025620823	-79.55987755273526	1312.1626007951131	-435.86547786928367	-206.54200636567222	1133.81201537844	-601.7268332745085	-96.56800247336732	1167.8131786235024	-806.9795694270733	194.46157522469014	869.5301611345565	-397.516455643158	234.83019649452416	484.92296907972093	-395.4705184709342	310.21898989433777	103.55723954322404	-368.8499293823791	-17.040236829108075	863.8752847512383	-401.1408289342818	-51.88585535987668	474.49929097206046	-385.79381373320604	-113.06017130697457	92.52095375626118	-349.72313491048254	315.19107567418996	46.49509014488788	-352.76089773877015	-126.36071455868472	27.23750126071672	-326.46594588782705	318.35138770112303	48.72112988076553	-579.8106047011593	383.6035835585793	48.916044609409916	-517.8850516393603	-98.56182055891821	54.2387490332027	-551.150547018439	-181.36864078533534	28.610596389259744	-504.115050703121	-65.29880703899204	935.3599536246239	-441.48570655702946	244.4241214424731	940.0071107716965	-432.83153885364766	137.53436000816723	941.9458339705591	-281.97563541440604	32.14021943401703	939.4371223079579	-290.23705683267366	134.29643360479494	1170.4578792936632	-697.89874019434	123.27219170155766	1222.1593276904753	-689.2692223122623	-79.63991767596455	1155.4475526100075	-880.2949705317287	-45.520800626921435	1195.9787694503775	-873.3054328545978	-101.63701872192959	473.3603492625387	-375.591542904226	197.9129871150493	1156.725731835125	-659.1270903310766	-166.23292723073013	87.00477160887849	-336.50494409242845	277.91498030653537	86.62446648273736	-381.003640216349	277.7612707300601	480.1873823994315	-389.7722682447395	90.06805526071886	1189.91850639282	-489.9190766472346	-87.63770336106643	75.20290516387912	-366.6643884983784	196.29219129728762	475.6106656360707	-409.77699638349435	-188.73111126016312	1111.8716449508397	-576.6691620412672	90.81100088731054	974.2108477255956	-480.98987720424805	381.8103828583334	1145.579214279752	-547.2848983028882	184.6992866529918	1198.318111487414	-622.7226567222906	-125.32442256994908	1153.477267303707	-813.2605596734617	-225.96240050169925	1170.4166875287272	-607.2269922800218	-15.940900834397837	468.80747909733464	-420.08238420787904	343.0849141316178	1104.9054625388123	-496.06043758568387	360.13998781720545	94.54254597261158	-371.64082963467536	-83.47693852557036	1189.0719447498977	-787.7500929632988	99.90041085284439	1441.2123715748378	-556.1007527972945	86.37927329521465	1221.8077576548733	-300.0198317834598	133.23480689001966	1545.006499487009	-573.9123950618724	66.21638361948806	1546.1990273215895	-571.1774086012691	19.258583477531996	1540.3772536387696	-470.31122984254336	185.51893263830672	1534.348603073099	-474.6542369535847	82.43545645476746	1428.7392233764429	-373.8150152941175	82.44959326686894	1319.6220469560049	-310.835352851726	101.18508196589707	1072.126274080895	-299.1221981775995	86.64372179638244	1210.9982064169985	-311.71237999827906	297.1771997157113	1240.9874117317581	-500.132314314938	367.80869409677314	1209.9951590145347	-456.5845792057281	-125.61154851199127	1297.713040525596	-476.80726211203785	-165.75001382487386	1151.9888348186855	-525.7454288505581	138.99525568058922	1006.4190048965553	-444.5396521554168	93.00933678619644	1101.674281579804	-510.50563449739985	23.48769797617306	1232.4877247801444	-501.53655133508215	18.379074702612034	1036.9075079056238	-454.29968161938166	170.59798097259144	1274.269350133073	-511.22145979133813	199.7220400379201	658.8982971758475	-402.58729540571585	295.74617451563154	633.2399685248545	-381.0187281648326	2.425858026383877	581.1456088521909	-405.54763845562553	-128.19659915973648	766.9964526279981	-387.0074870584885	-165.59820975904407	195.72147956105772	-357.67455152155907	-29.163770926550768	318.3280448446307	-383.8862570211871	324.7250112596399	332.86942506859884	-383.35913643404274	234.67086800953024	277.7586423906745	-386.1436307655365	342.0584440330067	43.24784666682729	-561.2938225179593	365.6753935540738	46.98598463972233	-543.7088907408032	303.0624183889888	54.27887130482471	-496.562032059775	338.94445899874063	64.52258866433658	-481.82059626691745	371.29946478883437	53.98099316017318	-469.4438389244508	-148.85459903910342	35.08751154595167	-531.2199591151295	-177.821170014132	51.23388784734996	-424.5812983283519	-164.3598927764492	33.05525257095027	-524.6888910430158	-129.85540168953398	37.47535588802866	-538.6031501026989	-142.6360642020358	45.653459261915565	-479.190271497524	-115.38596069952482	56.202967841945735	-445.4823636684253	
91	3.033333333333333	113.90234731072707	1675.74306980046	-461.28450275040444	103.37243929857198	1507.8274118496709	-581.2744405328655	84.15549370557689	1363.4753942465356	-421.62981335632054	287.57731660358075	1338.7834987147921	-407.01674964414013	356.1066101705926	1116.5341009167078	-528.1371141468234	186.03712999142434	1182.7385847024248	-657.8771836415411	-74.8319427767672	1311.3014015516776	-440.9362031744535	-200.9402886137343	1132.0034780051758	-606.4424607460945	-94.09897149893689	1165.4501660024807	-813.4335193728448	194.29191802891918	865.5714453871805	-383.06895559479176	238.26892234460095	481.76959838127596	-406.2944221505011	308.80290757568275	100.40719066844706	-368.61662352184567	-17.232174846901398	862.6202525471094	-388.2630680874269	-59.829117878257	473.39183387104424	-398.00865891236504	-111.60460606987976	91.17526952087202	-351.3113606677782	313.27275781065714	43.12133206105753	-351.30773202800646	-123.7746258334358	25.33224882549415	-327.2896055317072	315.13347139638756	46.8087275729014	-578.352778474766	380.73175200375675	47.07421385206115	-516.7942187419928	-97.32596356063516	55.20271242537226	-551.7739914974383	-180.07077669824898	29.84682880607965	-504.4825053473292	-64.13776277528005	932.3182365029561	-433.08174150173073	245.53874337450523	933.20523885736	-421.9256722563418	137.4564695147459	945.2955882528894	-272.39731749246295	32.10844640835191	943.7618366026915	-281.4477991851804	135.0234536106364	1174.8337886514723	-710.0001804469044	124.85192160986531	1226.6839053123629	-701.2168101509557	-78.15729426796251	1152.7704049199012	-886.9161934307634	-44.15697060031202	1193.5171161642822	-880.636795611746	-109.48829894760642	473.0051090644997	-388.64240692169017	196.85367368408956	1159.2671825183384	-669.0907286462531	-164.86795100102398	84.62936067456155	-338.95587724402566	276.0372346247087	83.5631976860392	-379.6016634617334	281.0759677866887	477.30123946501936	-400.4294556953437	90.1856770409149	1185.264357977897	-490.2004884140807	-85.39829339497837	74.04273144788753	-367.215073184083	199.49132393864915	473.23210107290294	-420.0695776093049	-182.81717008117337	1110.1958003222721	-581.4930620494063	91.5301225979901	969.9973523242514	-473.81801846446905	376.31876106181977	1142.7877248858483	-550.7119063177439	183.25095852294194	1200.7826941030876	-632.7418751633877	-122.86597645139035	1150.9299172583685	-819.2233977040344	-220.71724330192393	1168.4366715684107	-611.8090193043998	-22.55478695222011	469.4225696996273	-430.75793982214094	334.9553777002429	1102.50092906308	-501.2750174211553	358.52983105959333	90.57702076138035	-372.0460109932121	-80.8467596952882	1186.8823932510197	-794.5093978595179	102.35407003556244	1434.1062225965966	-563.0047391425932	86.85948958926573	1223.693860334073	-301.5093002680295	136.23667680252504	1537.5796325957733	-581.6294520313955	69.2058690716387	1539.0677773563605	-579.3872273859706	21.506996113428364	1534.460635700164	-478.8063851512322	187.7681688476111	1527.7236519923267	-481.8959697587211	82.18465076111474	1427.9377414644764	-382.4073670498762	82.64110119471685	1321.0648944937566	-315.69168295272556	102.0700826201969	1074.172126911971	-295.47164049891194	87.12541482161956	1212.4870320034188	-312.82160760419816	294.614383970834	1240.386456857865	-502.88149456682174	363.0420241793201	1205.5315638576537	-458.73936673439937	-120.9358822400494	1296.483046544751	-481.68689651771996	-159.97049454487257	1150.45894901362	-530.6240671831914	139.71346752205426	1003.5726633287918	-438.621847261903	93.31577778086542	1096.368778756756	-507.7298688445466	23.46377159055295	1227.232469992528	-503.1199681005318	18.9929768356802	1033.3906863728707	-449.1346363669618	170.43781945623226	1269.0375131670883	-514.6049431277133	201.36539688320897	655.7310949490103	-401.4036561800943	297.7828798731464	629.6632291279996	-382.21192177167273	-2.6559700133089272	580.3219781804406	-408.99075477241337	-130.47202270277336	767.264548491975	-383.2607771675031	-166.67995920214193	192.6286497914823	-363.4660365550264	-33.03264408895143	318.02202754320473	-390.82797059524006	326.2399349537446	328.8903464603793	-390.8970582375079	235.38537944604877	275.0419869635567	-390.18683604215283	338.9828978679935	41.38657051126864	-560.0045458280609	362.67191357251505	45.18068425171103	-542.5288758361042	300.2765782442325	51.730094254461235	-494.9860057469999	336.16817214482205	62.13455389241422	-480.38103331245713	368.6662639649975	51.744599186538316	-468.25343556921086	-147.68560056580506	36.339955218984215	-531.7373962277326	-175.6796854824305	51.29796092326436	-424.6665740998221	-163.1645135479286	34.39051536777258	-525.1190884573289	-128.71533043585802	38.617545209674766	-539.2290078514052	-140.9638123887877	46.095762836226264	-479.61216623610005	-113.34757873794146	55.85750415779762	-445.9649469200064	
92	3.0666666666666664	119.71217544764293	1666.4203731171551	-469.8672399682195	104.84774770417964	1498.698386823915	-589.6692283429512	85.2297712349537	1358.3593046928752	-421.5813145960637	290.5985692420265	1333.7075647778934	-407.7740598562373	352.65699384287933	1113.2051296468385	-535.4009756420652	186.4761170137903	1182.2503218581603	-668.6519606405135	-69.80395992252244	1304.9954782939758	-444.3603992585646	-203.42475555163352	1131.8167962014522	-610.4868830512871	-68.97207747696635	1164.5791839286758	-800.8238201948632	193.70208928931268	851.5455957748727	-320.5050049699858	242.4005638296163	481.57863281556627	-425.74932213027944	306.8315614035902	101.58021861990906	-368.46234840139056	-17.784670266223102	847.0631062333642	-314.9025027688712	-62.867985475692976	473.3461966272513	-430.6514900338365	-112.9289714132672	95.98169493843083	-352.929090067157	310.22667399046145	44.23921756879318	-349.22437591924563	-125.69153923139267	31.075744090291316	-324.98905771262645	314.44201523927904	47.136421550407235	-576.2493731419415	379.3858154210277	44.530507203675974	-514.0547334504731	-95.61005936724042	53.017225281805175	-549.9305875518464	-179.79822995655192	32.327759116750926	-502.91561631703894	-67.43428549812914	874.5093029224199	-391.37654168184946	242.36780581838536	880.5599379594777	-394.6685238939856	138.96403013850673	982.8400271124813	-280.5058071796686	33.426912454349264	976.5704412139679	-282.75939742669283	136.732469042789	1175.341751662406	-722.1265239285876	126.77245211997845	1227.1799853795999	-713.0359880408998	-44.14864711298909	1152.7814928808339	-871.9520747190298	-9.41901655884015	1191.6432226465838	-860.1467350418505	-112.214606407812	476.36393582107155	-433.12436444827426	197.37765740727394	1158.8086494588981	-679.8453668106696	-166.68997407342607	89.73987186965488	-342.76616508143724	274.4543306757762	84.57088347215125	-380.31046952803655	285.1864928725871	477.4194953525579	-421.7318588514651	91.3720012389289	1183.5403489104435	-498.38027127253935	-85.75026550799842	77.91602727152124	-365.8972184479956	202.20481632963944	474.3741515502618	-434.5034533920202	-188.27752039908353	1109.3513383934032	-584.1741637068124	91.77527912083137	967.7379665411672	-492.11563167499105	373.7598034945216	1139.488807267955	-557.1091485785141	183.20520228943423	1200.0472463434446	-643.399100138426	-97.37262337687028	1151.6349803297326	-810.7110581505267	-219.81794234959006	1169.5844739389502	-617.7098620515602	-16.462507652159	473.953983593642	-446.1518708017932	330.9785354010611	1099.0296668205328	-509.03855008913536	356.5553452318435	91.16964879676648	-369.03262531998445	-57.33676317360481	1184.8979337793737	-779.7323118765922	103.3479424464468	1424.9844181403737	-571.4035716385252	86.13411714820168	1213.0837350942113	-308.1383001901196	138.03832610201073	1528.0710441740323	-590.6748550207774	71.08750350824516	1530.3284627951784	-587.0883878968375	25.365025077993376	1526.2183631806897	-485.572496984492	191.4423316598021	1517.5722304042313	-491.9976559720985	83.0618711872615	1420.917004370855	-379.39703855151214	82.41518859172925	1311.029437269678	-317.7747968738439	100.74803499909052	1063.3830124369988	-308.9697340997554	86.4830806262945	1202.4192588889166	-319.96112500010224	294.94263761247106	1238.0897160446584	-506.5662840241195	362.08740759738083	1199.7993642344975	-463.3093564626319	-115.22091695940095	1292.8178023614128	-486.72524446652017	-164.30098173412745	1149.1118488687148	-533.4299643861798	139.69248694798506	999.4287194204146	-454.8685635965621	94.37698274569476	1095.5536080857105	-520.0321589307937	24.94348486170269	1226.3386014421976	-510.025435097796	19.199702722651104	1030.1961804495475	-465.25713404833846	172.18083983437754	1268.0408546773476	-517.963974509226	202.6589756010094	649.6859370214605	-380.4351340890205	300.8857147043725	623.8031616478444	-375.3580297706847	-2.5310637515655667	575.4499165639397	-394.4513628421499	-128.41577685485993	763.4502073766506	-366.96628819088613	-168.37491740317557	195.12205960601696	-376.81955267805523	-34.828377356648694	319.63717835563176	-408.3645411824492	327.8369290313577	328.72791185363235	-399.5705493291726	236.46901715806345	275.77020683803084	-401.0150741511368	337.8346472236183	40.66393136103174	-557.6551748242707	361.505719411341	43.40242761451775	-539.9592774029607	299.02962840520934	53.00239106314363	-493.0447179059238	335.22564120524544	61.76580539562613	-478.1177041552351	367.08503349693814	49.90825659470795	-465.6464004141432	-146.88440069189116	36.73087131375107	-529.954141549815	-175.4631688421875	56.0277760584169	-423.7352394918382	-162.4999499207062	35.58274813206558	-523.4706628518041	-127.75789251834475	38.045507666662736	-537.2774759021211	-140.36771679627716	47.8120343844999	-478.06832001593114	-112.76822757674351	57.528391433547434	-444.3942361693143	
93	3.1	123.35790111255372	1655.2545236823273	-477.65905709945685	106.76518599225332	1488.00999194682	-597.900816593974	84.07579852973453	1348.9162656894566	-429.72289911558323	290.5277285939319	1321.1101063106316	-413.34623634683356	351.86488245647257	1105.7966919859189	-549.8712844645516	184.04405214882618	1176.460251950909	-680.186201500808	-68.00925742544078	1294.8192232532901	-444.50449763124936	-206.92382517456426	1133.4184982622899	-617.986284608002	-38.23729484649738	1163.1305930724106	-779.3588108945705	194.43214557659263	844.6719379237057	-310.2434224612875	245.99191539323613	480.55047950870954	-434.40615641756506	306.65363000462867	101.39704956132888	-368.113030543544	-17.11016933965967	842.4885109034545	-305.4255539466237	-64.86313237084535	475.18705574155956	-441.2448882962291	-113.12066740730033	99.58577027263738	-354.3787523698923	309.377961347645	44.06828183816963	-347.954192745044	-125.49291004398727	35.19407181566728	-324.93837071812754	316.7889008533734	46.71431069573126	-574.900417132337	380.83113866414226	43.56449577991885	-511.8026230332877	-95.80707260208123	52.9925052286779	-550.2980447894196	-179.6906022433861	32.13454573755439	-502.8153260555194	-66.1741026346153	870.2666713285039	-382.15730021935445	243.68543071895175	872.9625110266148	-384.2985973856526	140.96740870115588	976.6553267678453	-270.7931293852022	35.37784446885013	971.5199066817953	-273.4277016828615	134.10487150492605	1170.4491919525565	-733.5868865973022	123.50039386297537	1221.8584638959392	-722.925082484531	-1.501761481184083	1151.8391342565606	-845.219423911199	32.60630898508295	1188.100787533427	-825.7905959896809	-114.02156626296167	479.11010392791263	-442.8140936917642	195.19748633770047	1153.507174709794	-692.1195614833548	-166.72503049709175	93.4864234137902	-343.3396839243142	274.40093044450606	84.35871070191342	-380.2554728843062	288.6076922617653	476.5446470344084	-429.40665157158554	91.90660969567679	1170.7802605716015	-498.30654231140375	-86.08731199017701	81.27727753754004	-367.31009202588325	205.76354068700442	473.8007249742052	-443.1056964085986	-196.3008930375887	1110.031821714307	-590.2967306309836	94.25585829482756	955.5148409591561	-482.01676856559266	372.5360409544979	1132.9749942615863	-570.8819519571604	180.6733133125756	1193.462580354484	-654.4045158235373	-65.02711868042473	1152.2747555171898	-794.7327179626242	-218.53920894746537	1172.561211730218	-626.9437576272459	-18.25952814358814	476.65102519150383	-455.7591002438514	330.6245688148766	1090.543556199817	-523.7548583521458	356.30598426220917	90.6545290527333	-367.47913164987403	-29.540320780867212	1182.0718597680916	-755.7225058610466	104.79097701009017	1414.2543646741333	-579.8497015525028	86.14014901530516	1209.0841197040245	-309.6486059157657	140.16887437237463	1517.1384228163283	-598.9529082673407	73.2516552042482	1519.8818074963979	-595.0888494497038	27.90873326880165	1515.8046250007017	-493.40153424458157	193.8899823579191	1505.9456465309268	-500.52442241028507	81.28346355420929	1413.344500337594	-390.4942849350001	81.5474832452988	1306.4381874403468	-323.8312004916991	102.11048128913473	1059.6458830399595	-303.5064441473997	86.60192272181453	1197.8853327237882	-320.9625773646051	293.95599110644343	1229.2236583082988	-515.6530062698246	361.8810541380638	1189.723584218936	-474.7670316670667	-111.20635119731695	1286.6691575647121	-490.03869803092516	-171.98691175449082	1148.0786793817997	-538.4121153765913	141.83288017700286	989.3376531922635	-446.2375697776062	95.73811764148572	1081.9133714067832	-515.8421139020164	25.109233084033704	1212.3840378910952	-511.99172550055306	21.080745556584013	1018.4899394723645	-458.15966245628005	171.9735996030616	1255.0120910564215	-521.7202383634532	204.89262630722948	646.1479083137798	-380.22882115980275	303.1882491072594	620.4552666171827	-375.5335016621535	-3.694070046011841	575.2351022169944	-398.8602492063165	-128.2381209820134	762.5137942288794	-361.9553638641803	-169.0814352435376	198.07276172740447	-379.7268097760901	-36.22208691630238	322.06445925920735	-415.89629913681944	329.8369152091505	327.7177380433568	-403.41885765025955	238.1525429280319	275.3355548624072	-405.6059235343841	339.8585840481888	40.04259315027524	-555.9760816415551	363.30471408861064	42.57804208393694	-537.9534766515798	300.2715868353553	52.80059823768101	-491.92390623450024	336.33548037225194	61.24200167180498	-476.49980807875284	367.90622091850764	49.10124842568773	-463.575172310477	-146.8505180257524	36.429950536024485	-529.9606344317762	-175.63713900902695	57.482815419402115	-424.13209854148477	-162.44646255143275	35.20465858257121	-523.4441756874784	-127.746524373477	37.85159764024816	-537.322642020313	-140.45928915010967	48.64152740557739	-478.3134911994533	-112.97701233777124	59.40252932598847	-444.8619049699242	
